<svg xmlns="http://www.w3.org/2000/svg" viewBox="0 0 630 630" width="110" height="110" fill="none" ><path d="M85 45.358c44.264 0 80.147 13.719 80.147 30.642 0 16.923-35.883 30.642-80.147 30.642S4.853 92.923 4.853 76c0-16.923 35.883-30.642 80.147-30.642zm26.443 45.963c-22.133 38.471-51.912 62.801-66.517 54.338-14.604-8.462-8.5-46.508 13.633-84.98 22.132-38.472 51.912-62.8 66.515-54.338 14.603 8.462 8.5 46.508-13.631 84.98zm0-30.642c22.131 38.471 28.235 76.52 13.631 84.98-14.605 8.461-44.383-15.867-66.517-54.338-22.133-38.471-28.235-76.52-13.63-84.98C59.53-2.12 89.31 22.207 111.442 60.679z" stroke="#6FCFF0" stroke-width="9" stroke-miterlimit="10"/><path d="M99.243 76.46c0 7.632-6.171 13.819-13.784 13.819-7.612 0-13.783-6.187-13.783-13.818 0-7.632 6.17-13.819 13.783-13.819 7.613 0 13.784 6.187 13.784 13.819z" fill="#6FCFF0"/></svg>