<?xml version="1.0" standalone="no"?>
<!DOCTYPE svg PUBLIC "-//W3C//DTD SVG 20010904//EN"
 "http://www.w3.org/TR/2001/REC-SVG-20010904/DTD/svg10.dtd">
<svg version="1.0" xmlns="http://www.w3.org/2000/svg"
 width="200.000000pt" height="200.000000pt" viewBox="0 0 200.000000 200.000000"
 preserveAspectRatio="xMidYMid meet">

<g transform="translate(0.000000,200.000000) scale(0.100000,-0.100000)"
fill="#000000" stroke="none">
<path d="M234 1731 c-51 -23 -90 -72 -103 -131 -14 -61 -14 -1139 0 -1200 13
-59 52 -108 103 -131 39 -18 79 -19 766 -19 687 0 727 1 766 19 54 25 92 75
104 141 13 70 13 1110 0 1180 -12 66 -50 116 -104 141 -39 18 -79 19 -766 19
-687 0 -727 -1 -766 -19z m1500 -55 c18 -7 42 -26 54 -41 l22 -28 0 -607 0
-607 -22 -28 c-44 -56 -28 -55 -788 -55 -750 0 -740 -1 -785 50 -19 21 -20 38
-23 634 l-2 613 21 28 c44 55 26 54 787 55 575 0 709 -3 736 -14z"/>
<path d="M542 1479 c-25 -12 -55 -39 -70 -62 -23 -34 -27 -52 -27 -108 0 -60
3 -71 31 -106 108 -135 318 -77 332 91 12 148 -136 251 -266 185z m133 -53
c121 -51 81 -236 -50 -236 -130 0 -171 184 -52 235 41 18 60 18 102 1z"/>
<path d="M1070 1426 c-30 -38 26 -64 116 -53 55 6 73 20 58 45 -15 24 -155 30
-174 8z"/>
<path d="M1320 1425 c-18 -22 -5 -43 32 -50 18 -4 111 -5 205 -3 182 3 209 10
187 46 -10 15 -35 17 -211 20 -169 2 -202 0 -213 -13z"/>
<path d="M1071 1236 c-6 -7 -9 -21 -5 -30 6 -15 31 -16 248 -14 l241 3 0 25 0
25 -236 3 c-192 2 -238 0 -248 -12z"/>
<path d="M1634 1236 c-13 -35 3 -47 58 -44 49 3 53 5 53 28 0 23 -4 25 -53 28
-40 2 -54 -1 -58 -12z"/>
<path d="M505 1042 c-69 -24 -137 -73 -178 -129 -42 -58 -79 -162 -75 -212 3
-31 7 -36 27 -36 22 0 26 7 37 62 24 118 79 194 172 240 48 24 70 28 137 28
67 0 89 -4 137 -28 93 -46 152 -128 173 -242 10 -54 13 -60 36 -60 20 0 24 5
27 36 4 52 -33 155 -78 215 -43 57 -117 109 -186 130 -64 19 -168 17 -229 -4z"/>
<path d="M1066 1044 c-13 -34 12 -45 98 -42 79 3 81 4 81 28 0 25 -2 25 -86
28 -73 2 -88 0 -93 -14z"/>
<path d="M1316 1044 c-16 -40 7 -45 223 -42 l206 3 0 25 0 25 -211 3 c-189 2
-212 1 -218 -14z"/>
<path d="M1074 866 c-15 -12 -17 -18 -8 -33 10 -16 31 -18 230 -21 120 -1 229
0 242 3 28 7 29 40 3 55 -12 6 -105 10 -233 10 -171 0 -218 -3 -234 -14z"/>
<path d="M1642 871 c-8 -4 -12 -19 -10 -32 3 -22 8 -24 52 -24 36 0 52 5 60
18 9 15 7 21 -8 33 -22 15 -73 19 -94 5z"/>
<path d="M1070 675 c-7 -8 -10 -22 -6 -30 4 -12 24 -15 91 -15 67 0 87 3 91
15 12 31 -15 45 -91 45 -52 0 -76 -4 -85 -15z"/>
<path d="M1321 676 c-6 -7 -9 -21 -5 -30 5 -14 31 -16 215 -16 178 0 211 2
215 15 4 8 1 22 -6 30 -18 21 -402 22 -419 1z"/>
</g>
</svg>
