<?xml version="1.0" standalone="no"?>
<!DOCTYPE svg PUBLIC "-//W3C//DTD SVG 20010904//EN"
 "http://www.w3.org/TR/2001/REC-SVG-20010904/DTD/svg10.dtd">
<svg version="1.0" xmlns="http://www.w3.org/2000/svg"
 width="200.000000pt" height="200.000000pt" viewBox="0 0 200.000000 200.000000"
 preserveAspectRatio="xMidYMid meet">

<g transform="translate(0.000000,200.000000) scale(0.100000,-0.100000)"
fill="#000000" stroke="none">
<path d="M862 1950 c-101 -27 -165 -64 -243 -140 -111 -109 -164 -240 -162
-400 3 -293 247 -530 543 -530 299 0 542 239 543 535 0 154 -53 287 -157 390
-76 76 -152 120 -252 145 -96 25 -177 25 -272 0z m288 -101 c270 -93 386 -428
231 -667 -72 -110 -183 -182 -316 -205 -120 -20 -272 25 -365 109 -211 190
-196 533 31 700 120 88 276 112 419 63z"/>
<path d="M788 1770 c-92 -48 -99 -84 -37 -196 58 -105 90 -122 163 -88 44 21
59 15 89 -38 40 -70 42 -94 10 -115 -86 -53 -93 -89 -36 -191 46 -86 59 -99
94 -107 22 -5 44 2 93 29 34 19 68 41 73 48 20 25 36 121 35 212 0 204 -96
350 -287 442 -85 41 -122 42 -197 4z m183 -102 c78 -41 136 -101 173 -178 29
-61 31 -72 31 -181 0 -125 -4 -138 -56 -165 -27 -14 -28 -13 -58 38 l-30 53
51 29 50 29 -4 62 c-6 75 -34 139 -82 193 -53 59 -84 69 -135 43 -22 -12 -42
-21 -45 -21 -7 0 -56 85 -56 97 0 15 63 42 85 36 11 -3 45 -19 76 -35z"/>
<path d="M345 1155 c-5 -2 -22 -6 -37 -9 -37 -8 -98 -63 -114 -103 -11 -25
-14 -122 -14 -450 0 -404 1 -418 21 -461 13 -26 38 -54 62 -70 l41 -27 696 0
696 0 41 27 c25 16 49 44 62 71 21 44 22 52 19 475 l-3 430 -31 39 c-43 52
-80 72 -151 79 l-61 7 -26 -41 c-14 -23 -26 -44 -26 -46 0 -3 25 -6 56 -8 l57
-3 -312 -207 c-171 -115 -315 -208 -321 -208 -6 0 -150 93 -321 208 l-312 207
57 3 c31 2 56 5 56 8 0 2 -11 22 -25 44 -22 35 -30 40 -63 39 -20 0 -41 -2
-47 -4z m274 -357 c317 -212 336 -223 381 -223 45 0 63 10 378 223 182 122
335 222 340 222 5 0 13 -7 16 -16 3 -9 6 -197 6 -419 0 -371 -1 -404 -18 -425
l-18 -22 -277 206 -277 205 -35 -21 c-25 -14 -33 -24 -26 -32 5 -6 122 -94
260 -196 l251 -185 -300 -3 c-165 -1 -435 -1 -601 0 l-301 3 261 194 c144 106
261 195 261 196 0 2 -16 13 -36 24 l-36 21 -276 -205 -277 -206 -17 22 c-17
19 -18 55 -18 424 0 377 2 435 18 435 4 0 157 -100 341 -222z"/>
</g>
</svg>
