<?xml version="1.0" standalone="no"?>
<!DOCTYPE svg PUBLIC "-//W3C//DTD SVG 20010904//EN"
 "http://www.w3.org/TR/2001/REC-SVG-20010904/DTD/svg10.dtd">
<svg version="1.0" xmlns="http://www.w3.org/2000/svg"
 width="200.000000pt" height="200.000000pt" viewBox="0 0 200.000000 200.000000"
 preserveAspectRatio="xMidYMid meet">

<g transform="translate(0.000000,200.000000) scale(0.100000,-0.100000)"
fill="#000000" stroke="none">
<path d="M856 1924 c-13 -12 -16 -38 -16 -120 l0 -104 -313 0 c-309 0 -314 0
-358 -23 -29 -16 -54 -40 -74 -72 l-30 -48 0 -557 0 -557 30 -48 c20 -32 45
-56 74 -72 44 -23 49 -23 358 -23 l313 0 0 -43 c0 -67 -35 -104 -110 -116 -27
-5 -36 -12 -38 -29 -8 -51 -2 -52 308 -52 310 0 316 1 308 52 -2 17 -11 24
-38 29 -75 12 -110 49 -110 116 l0 43 313 0 c309 0 314 0 358 23 29 16 54 40
74 72 l30 48 0 556 0 556 -27 47 c-31 51 -79 86 -133 95 l-35 6 0 106 c0 70
-4 111 -12 119 -9 9 -119 12 -434 12 -371 0 -424 -2 -438 -16z m804 -104 l0
-40 -370 0 -370 0 0 40 0 40 370 0 370 0 0 -40z m0 -315 l0 -195 -370 0 -370
0 0 195 0 195 370 0 370 0 0 -195z m-820 -64 c0 -175 1 -180 22 -195 19 -14
77 -16 431 -16 262 0 415 4 428 10 18 10 19 23 19 195 0 203 -1 201 59 170 60
-30 61 -41 61 -499 l0 -416 -860 0 -860 0 0 416 c0 364 2 420 16 450 30 62 36
63 377 64 l307 0 0 -179z m1020 -897 c0 -78 -21 -129 -61 -149 -42 -22 -1556
-22 -1598 0 -40 20 -61 71 -61 149 l0 66 860 0 860 0 0 -66z m-780 -284 c0
-22 7 -57 15 -77 8 -19 15 -37 15 -39 0 -2 -49 -4 -110 -4 -60 0 -110 2 -110
4 0 2 7 20 15 39 8 20 15 55 15 77 l0 40 80 0 80 0 0 -40z"/>
<path d="M1023 1620 c-25 -10 -30 -39 -11 -58 8 -8 65 -12 190 -12 l178 0 6
26 c4 15 2 30 -5 37 -15 15 -326 21 -358 7z"/>
<path d="M1012 1458 c-15 -15 -15 -41 0 -56 9 -9 85 -12 279 -12 230 0 270 2
283 16 9 8 16 19 16 24 0 5 -7 16 -16 24 -13 14 -53 16 -283 16 -194 0 -270
-3 -279 -12z"/>
<path d="M232 1498 c-9 -9 -12 -95 -12 -325 0 -299 1 -313 19 -323 12 -6 113
-10 260 -10 237 0 240 0 255 22 13 19 16 60 16 247 l0 224 -87 88 -87 89 -176
0 c-124 0 -180 -4 -188 -12z m395 -130 l63 -62 0 -193 0 -193 -195 0 -195 0 0
255 0 255 132 0 132 0 63 -62z"/>
<path d="M384 1256 c-3 -8 -4 -23 -2 -33 3 -15 14 -18 73 -18 l70 0 0 30 0 30
-68 3 c-52 2 -69 0 -73 -12z"/>
<path d="M390 1106 c-6 -8 -10 -25 -8 -38 3 -22 7 -23 102 -26 102 -3 126 4
126 39 0 29 -32 39 -123 39 -62 0 -88 -4 -97 -14z"/>
<path d="M936 1064 c-20 -19 -20 -38 -2 -53 9 -8 123 -10 401 -9 357 3 389 4
399 21 8 12 8 22 0 35 -10 16 -42 17 -397 20 -340 2 -387 0 -401 -14z"/>
<path d="M932 908 c-16 -16 -15 -33 4 -52 13 -14 63 -16 393 -16 406 0 416 1
409 51 l-3 24 -395 3 c-300 2 -399 -1 -408 -10z"/>
<path d="M950 515 c-6 -8 -9 -23 -5 -34 12 -40 98 -40 110 0 10 29 -12 49 -55
49 -21 0 -43 -7 -50 -15z"/>
</g>
</svg>
