<?xml version="1.0" standalone="no"?>
<!DOCTYPE svg PUBLIC "-//W3C//DTD SVG 20010904//EN"
 "http://www.w3.org/TR/2001/REC-SVG-20010904/DTD/svg10.dtd">
<svg version="1.0" xmlns="http://www.w3.org/2000/svg"
 width="200.000000pt" height="200.000000pt" viewBox="0 0 200.000000 200.000000"
 preserveAspectRatio="xMidYMid meet">

<g transform="translate(0.000000,200.000000) scale(0.100000,-0.100000)"
fill="#000000" stroke="none">
<path d="M1686 1955 c-116 -41 -171 -185 -113 -296 67 -126 244 -147 341 -39
60 66 71 143 32 226 -47 101 -155 147 -260 109z"/>
<path d="M1238 1806 c-67 -24 -128 -67 -163 -114 -59 -80 -65 -116 -65 -388
l0 -243 -57 -3 c-51 -3 -59 -6 -73 -30 -13 -25 -13 -31 0 -55 14 -25 22 -28
73 -31 l57 -3 0 -243 c0 -275 6 -310 67 -390 48 -63 137 -113 216 -122 69 -8
97 9 97 61 0 40 -14 52 -70 61 -93 14 -157 67 -179 149 -6 23 -11 133 -11 263
l0 222 113 0 c125 0 147 9 147 63 0 49 -20 57 -146 57 l-114 0 0 221 c0 135 5
238 12 267 14 56 80 127 127 136 17 3 45 9 61 12 40 7 60 29 60 63 0 56 -67
77 -152 47z"/>
<path d="M345 1506 c-68 -31 -131 -104 -151 -174 -64 -218 161 -415 372 -327
46 19 112 82 136 129 13 24 23 68 26 109 4 61 2 73 -28 133 -33 68 -85 116
-153 141 -56 20 -146 16 -202 -11z"/>
<path d="M1663 1185 c-69 -35 -106 -88 -111 -165 -5 -72 9 -117 51 -160 120
-123 315 -73 359 93 24 90 -24 189 -112 235 -60 30 -122 29 -187 -3z"/>
<path d="M260 951 c-80 -25 -159 -91 -197 -165 -23 -43 -27 -68 -31 -162 -7
-168 -46 -154 426 -154 373 0 390 1 407 19 26 30 18 239 -12 296 -46 86 -151
161 -242 172 -59 7 -87 -7 -96 -47 -15 -70 -92 -73 -115 -6 -6 20 -20 41 -30
46 -21 11 -74 12 -110 1z"/>
<path d="M1659 427 c-66 -35 -102 -93 -107 -171 -5 -74 16 -125 72 -174 64
-56 142 -66 221 -28 59 27 77 46 104 106 81 178 -116 359 -290 267z"/>
</g>
</svg>
