<?xml version="1.0" encoding="UTF-8" standalone="no"?>
<!-- Created with Inkscape (http://www.inkscape.org/) -->

<svg
   width="50.926567mm"
   height="24.560024mm"
   viewBox="0 0 50.926567 24.560024"
   version="1.1"
   id="svg5"
   xml:space="preserve"
   inkscape:version="1.2.1 (9c6d41e410, 2022-07-14)"
   sodipodi:docname="logo.svg"
   inkscape:export-filename="logo.png"
   inkscape:export-xdpi="96"
   inkscape:export-ydpi="96"
   xmlns:inkscape="http://www.inkscape.org/namespaces/inkscape"
   xmlns:sodipodi="http://sodipodi.sourceforge.net/DTD/sodipodi-0.dtd"
   xmlns="http://www.w3.org/2000/svg"
   xmlns:svg="http://www.w3.org/2000/svg"><sodipodi:namedview
     id="namedview7"
     pagecolor="#ffffff"
     bordercolor="#000000"
     borderopacity="0.25"
     inkscape:showpageshadow="true"
     inkscape:pageopacity="0.0"
     inkscape:pagecheckerboard="false"
     inkscape:deskcolor="#d1d1d1"
     inkscape:document-units="mm"
     showgrid="false"
     inkscape:zoom="0.72515432"
     inkscape:cx="139.97021"
     inkscape:cy="599.18281"
     inkscape:window-width="1920"
     inkscape:window-height="1001"
     inkscape:window-x="-9"
     inkscape:window-y="-9"
     inkscape:window-maximized="1"
     inkscape:current-layer="layer1"
     borderlayer="true"
     showborder="true"
     showguides="true" /><defs
     id="defs2" /><g
     inkscape:label="Layer 1"
     inkscape:groupmode="layer"
     id="layer1"
     transform="translate(-1.0562439,-12.729962)"><path
       style="fill:#000000;stroke-width:0.137595"
       d="m 20.493488,37.229489 c 0.108471,-0.0333 0.285968,-0.0333 0.394439,0 0.10847,0.0333 0.01972,0.0605 -0.19722,0.0605 -0.216941,0 -0.30569,-0.0272 -0.197219,-0.0605 z m -7.888772,-6.3691 -4.2204936,-0.0351 -0.0077,-4.22788 -0.0077,-4.22789 -1.372799,-0.65985 c -2.656414,-1.27683 -4.785094,-2.81556 -5.644258,-4.07997 -0.43486396,-0.63998 -0.37082296,-2.36751 0.06775,-1.82779 0.06721,0.0827 0.124688,-0.0349 0.133571,-0.27324 0.03672,-0.98532 1.217239,-1.84987 3.123466,-2.28746 1.195941,-0.27454 3.791759,-0.52895 5.20659,-0.51028 1.1622046,0.0153 1.1997036,0.0232 0.4733256,0.099 l -0.7888766,0.0823 0.7099886,0.0346 c 0.572766,0.0279 0.420296,0.063 -0.7888766,0.18148 -2.153212,0.2111 -3.027428,0.38969 -3.85031,0.78659 -1.987882,0.9588 -1.786092,2.24559 0.643802,4.10548 0.642947,0.49213 0.983893,0.67082 1.186577,0.62189 0.15642,-0.0378 0.293276,-0.011 0.304123,0.0594 0.01084,0.0705 0.0286,0.18404 0.03944,0.25245 0.01084,0.0684 0.12622,0.17454 0.256386,0.23586 0.205798,0.0969 0.246951,-0.15792 0.31555,-1.9543 l 0.07889,-2.06579 4.4966006,-0.0346 c 2.656655,-0.0204 5.043502,0.0196 5.83316,0.098 2.468461,0.24485 4.729267,1.13988 5.833683,2.3095 l 0.491579,0.52061 1.375679,-1.029 c 0.924425,-0.69147 1.737955,-1.17279 2.480107,-1.46739 3.757782,-1.4916 8.366479,-1.17981 11.739579,0.79421 1.304,0.76314 2.939342,2.3241 2.658571,2.53764 -0.05534,0.042 -0.961017,0.41593 -2.012616,0.83077 l -1.912016,0.75426 -1.055706,-0.80277 c -1.530129,-1.1635 -2.226655,-1.38925 -4.290109,-1.39042 -1.381988,-7.9e-4 -1.782971,0.0434 -2.418619,0.26652 -2.316542,0.81313 -3.735316,2.60999 -3.53018,4.47094 0.04797,0.4351 0.210526,1.0319 0.361255,1.32622 0.373543,0.7294 1.236048,1.61366 1.847683,1.89429 0.53339,0.24473 3.783894,0.75445 4.996684,0.78354 0.818611,0.0197 1.740907,-0.23325 1.740907,-0.47733 0,-0.0949 0.162425,-0.16543 0.381031,-0.16543 0.256728,0 0.596368,-0.18594 1.041139,-0.56998 l 0.660107,-0.56998 -2.65834,-0.06 -2.658331,-0.06 v -1.49995 -1.49994 h 5.364361 5.364372 l -0.043,1.10141 c -0.05295,1.35473 -0.516531,2.78627 -1.137384,3.51196 l -0.467497,0.54644 0.429513,0.0963 c 0.63868,0.14319 2.498585,-0.006 3.663917,-0.29345 2.224297,-0.54911 3.118186,-1.55981 2.451991,-2.77243 -0.310062,-0.56439 -1.249624,-1.48872 -2.084644,-2.05086 -0.376325,-0.25335 -0.649214,-0.50372 -0.606414,-0.55639 0.04282,-0.0527 -0.04567,-0.16937 -0.196551,-0.25934 -0.248293,-0.14804 -0.253791,-0.14363 -0.05783,0.0464 0.263284,0.25533 -0.01833,0.28392 -0.295422,0.03 -0.156707,-0.14361 -0.156707,-0.18 0,-0.18 0.14877,0 0.143889,-0.0492 -0.02017,-0.20304 -0.238017,-0.22318 1.213555,0.56604 2.482176,1.34955 2.006908,1.23949 3.270538,2.66544 3.270382,3.69047 -3.23e-4,2.12245 -3.478324,3.09424 -10.454198,2.92103 -1.698465,-0.0421 -3.283364,-0.11034 -3.521998,-0.15148 -0.252133,-0.0435 -0.433887,-0.024 -0.433887,0.0466 0,0.16867 4.373648,0.3104 7.398333,0.23974 2.888604,-0.0675 4.626408,-0.36438 5.875866,-1.00388 0.427423,-0.21875 0.73534,-0.34632 0.684271,-0.28347 -0.05111,0.0628 -0.01768,0.11426 0.07422,0.11426 0.355275,0 0.136568,0.23622 -0.582353,0.62899 -1.873341,1.02345 -4.190209,1.35198 -8.874869,1.25848 -2.84584,-0.0568 -3.122551,-0.0436 -3.689019,0.17601 -1.133811,0.43955 -2.060417,0.5939 -3.963084,0.66017 -2.197815,0.0765 -3.237876,-0.0764 -5.120852,-0.75279 -1.234069,-0.44332 -2.100745,-0.92671 -3.101236,-1.72971 -0.537238,-0.43119 -1.165552,-0.63879 -1.165552,-0.3851 0,0.2143 -1.697173,1.52482 -2.439497,1.88374 -1.459414,0.70561 -2.627315,0.94271 -5.212613,1.0582 -0.347106,0.0155 -2.530323,0.0124 -4.851594,-0.007 z m 7.856449,-0.59683 c 1.800238,-0.49135 2.891921,-1.09388 4.000893,-2.20824 l 0.623151,-0.62618 -2.000032,-0.49845 c -1.77506,-0.44239 -2.011664,-0.47614 -2.103448,-0.30011 -0.153793,0.29497 -1.063272,0.84312 -1.868777,1.12633 -0.624064,0.21943 -1.015496,0.25001 -3.234396,0.25273 -1.388424,0.002 -2.652999,-0.0183 -2.810165,-0.0445 -0.262788,-0.0438 -0.282992,-0.19828 -0.251343,-1.92165 0.02137,-1.16369 0.09805,-1.90565 0.202301,-1.95748 0.219089,-0.10893 0.248399,-0.0935 -1.411887,-0.74071 -0.787125,-0.30681 -1.582895,-0.66537 -1.7683766,-0.79679 -0.185482,-0.13143 -0.412619,-0.23896 -0.504749,-0.23896 -0.09213,0 -0.432342,-0.12648 -0.756029,-0.28107 -0.683642,-0.32651 -1.581196,-0.66831 -1.080159,-0.41135 0.163484,0.0838 0.50073,0.27874 0.749434,0.4331 l 0.452191,0.28066 v 4.11917 c 0,2.60863 0.05722,4.13385 0.15604,4.15918 0.08582,0.022 2.5175356,0.0118 5.4038086,-0.0226 4.867588,-0.0581 5.316867,-0.0815 6.201543,-0.32298 z m 15.849311,0.15575 c 0.564047,-0.0912 1.42555,-0.30047 1.914447,-0.46514 0.864035,-0.29103 0.974388,-0.29832 3.944384,-0.26072 2.906791,0.0368 2.955669,0.0338 1.004407,-0.0617 -1.128102,-0.0552 -2.72558,-0.1336 -3.549955,-0.17423 -2.872434,-0.14154 -8.242765,-0.80166 -11.233581,-1.38082 -2.077334,-0.40227 -2.302811,-0.42573 -2.161497,-0.22491 0.08678,0.12332 0.236182,0.18736 0.332012,0.14232 0.09583,-0.0451 0.130292,-0.0279 0.07659,0.0383 -0.226575,0.27882 2.105572,1.56076 3.652516,2.00773 0.577918,0.16698 1.334755,0.35341 1.681861,0.41429 0.960394,0.16843 3.190986,0.15039 4.338821,-0.0351 z m 10.139246,-0.87453 c -0.194057,-0.0285 -0.549056,-0.0292 -0.788877,-0.002 -0.239831,0.0276 -0.08103,0.0509 0.352826,0.0518 0.433877,7.9e-4 0.630107,-0.0217 0.436051,-0.0502 z m 1.102254,-0.115 c -0.108465,-0.0333 -0.285964,-0.0333 -0.394438,0 -0.108465,0.0333 -0.01971,0.0605 0.197223,0.0605 0.216939,0 0.305689,-0.0272 0.197215,-0.0605 z m -10.187064,-0.543 c -0.05037,-0.0957 -0.08776,-0.0673 -0.09532,0.0725 -0.0064,0.12649 0.03048,0.19736 0.08287,0.15749 0.0524,-0.0398 0.05801,-0.14337 0.01243,-0.23 z m -0.265559,0.0396 c 0,-0.0566 -0.408241,-0.13564 -0.907203,-0.17564 -0.964922,-0.0773 -5.062575,-0.65992 -6.90268,-0.98136 -2.104804,-0.36769 -7.81108,-1.68679 -7.967661,-1.84186 -0.04339,-0.043 -0.469382,-0.17901 -0.946653,-0.30231 -3.601471,-0.93041 -9.649356,-3.09302 -12.2707826,-4.38779 -0.883033,-0.43615 -1.4004,-0.63349 -1.304861,-0.49772 0.209396,0.29757 2.279744,1.32983 2.667168,1.32983 0.167069,0 0.344895,0.0815 0.395171,0.18118 0.117421,0.23272 4.8756536,1.98434 7.8016716,2.87199 5.447622,1.65261 11.846234,3.02014 17.148088,3.66495 2.123687,0.25828 2.287742,0.26823 2.287742,0.13873 z m 10.807622,-0.32072 c 1.374388,-0.28509 2.78118,-0.84359 3.234395,-1.28406 0.323627,-0.31453 0.393444,-0.51342 0.388923,-1.10778 -0.0074,-0.95909 -0.500491,-1.59291 -2.337707,-3.00433 -0.773168,-0.59398 -1.052042,-0.77391 -0.61972,-0.39985 1.003311,0.86812 1.464077,1.61106 1.464077,2.36072 0,1.10296 -1.123305,1.82522 -3.549946,2.28255 -1.51848,0.28618 -5.855415,0.45962 -6.232136,0.24924 -0.177205,-0.099 0.04144,-0.11702 0.870407,-0.0718 l 1.107061,0.0604 0.453132,-0.62065 c 0.249224,-0.34136 0.590723,-0.8201 0.758895,-1.06388 0.375524,-0.54436 0.789125,-2.29661 0.72405,-3.06752 l -0.04807,-0.56909 -4.930485,-0.0317 -4.930485,-0.0317 v 1.32166 1.32166 h 2.593984 c 1.492319,0 2.633856,0.0491 2.687863,0.11554 0.121688,0.14974 -0.543135,0.938 -1.122356,1.33075 -0.248468,0.16848 -0.83432,0.4594 -1.301873,0.64649 -0.787357,0.31504 -0.94028,0.33486 -2.071565,0.26851 -1.828954,-0.10726 -4.671822,-0.62714 -5.193663,-0.94975 -0.241602,-0.14937 -0.687717,-0.54157 -0.991366,-0.87155 -1.748149,-1.89978 -1.454028,-4.53333 0.688252,-6.16263 2.537308,-1.92975 6.8549,-1.86175 9.227571,0.14532 l 0.710487,0.60101 1.72516,-0.64738 c 0.948835,-0.35605 1.725151,-0.68498 1.725151,-0.73095 0,-0.16592 -1.227358,-1.2581 -2.07597,-1.84731 -0.947342,-0.65777 -2.298571,-1.25155 -3.718283,-1.63398 -1.311578,-0.35329 -4.041901,-0.43813 -5.398672,-0.16774 -2.270048,0.45239 -4.360881,1.45549 -5.635266,2.70358 -0.404534,0.39618 -0.815464,0.72033 -0.913183,0.72033 -0.09772,0 -0.435725,-0.26289 -0.751127,-0.5842 -1.032293,-1.05161 -2.397744,-1.76058 -4.22716,-2.1948 -1.138678,-0.27028 -1.376743,-0.28088 -6.311018,-0.28088 H 8.7786304 l -0.043,2.18992 c -0.03525,1.79525 -0.08333,2.18992 -0.266796,2.18992 -0.123086,0 -0.268388,-0.0548 -0.322893,-0.12196 -0.0545,-0.0671 -0.163727,-0.0916 -0.242714,-0.0544 -0.07899,0.0372 -0.287079,0.009 -0.462424,-0.0623 -0.175347,-0.0714 -0.318813,-0.10225 -0.318813,-0.0687 0,0.0336 0.219596,0.14751 0.487989,0.25307 0.268394,0.10555 0.45448,0.2174 0.413524,0.24855 -0.08055,0.0612 -2.637043,-0.9033 -2.637043,-0.99495 0,-0.0305 0.159748,-0.0196 0.354995,0.0242 0.195248,0.0439 0.01775,-0.0863 -0.394438,-0.28926 -1.219176,-0.60032 -0.859766,-0.54771 0.788877,0.11548 l 1.538311,0.6188 -1.439421,-1.06824 c -1.577705,-1.17087 -2.257364,-2.00612 -2.304043,-2.83149 -0.04427,-0.7829 0.433321,-1.39692 1.455719,-1.87152 l 0.867766,-0.40281 -0.701817,0.078 c -1.067875,0.11877 -2.618053,0.73145 -3.121279,1.23364 -0.621568,0.62029 -0.609745,1.54529 0.03041,2.37854 0.556864,0.72485 1.887756,1.80557 3.161589,2.56729 2.918607,1.74526 8.6813596,4.04659 14.0420156,5.60762 0.780988,0.22743 1.79696,0.55339 2.257713,0.72436 0.460754,0.17097 1.039515,0.31644 1.286137,0.32327 0.246622,0.007 0.420711,0.0467 0.386866,0.0887 -0.03385,0.042 0.09738,0.10325 0.291615,0.13622 0.194237,0.033 1.595639,0.30633 3.114227,0.60747 3.882437,0.76989 8.004781,1.35753 11.990931,1.7093 2.442756,0.21556 7.605281,0.13855 8.914318,-0.13298 z m -7.494339,-1.2449 c 0,-0.0978 1.247884,-0.0401 1.406838,0.0651 0.03619,0.0239 -0.265596,0.0435 -0.67055,0.0435 -0.404954,0 -0.736288,-0.0488 -0.736288,-0.10857 z m -3.034344,-0.0984 c 0.28357,-0.0267 0.709565,-0.0261 0.946652,0.002 0.237077,0.0274 0.0046,0.0492 -0.515602,0.0485 -0.520656,-7.2e-4 -0.71463,-0.023 -0.43105,-0.0498 z m -10.401071,-1.29624 c -2.289069,-0.46098 -6.716055,-1.58391 -8.581483,-2.17673 -0.698184,-0.22188 -2.224662,-0.76712 -3.392172,-1.21164 l -2.122743,-0.80823 v -1.85993 -1.85993 h 2.524406 c 2.799275,0 3.613197,0.13322 4.796281,0.78502 1.377683,0.75902 2.137813,2.44881 2.042422,4.54039 l -0.05436,1.19187 2.76107,0.6655 c 1.518589,0.36602 3.059819,0.72353 3.424955,0.79447 0.365137,0.0709 0.706571,0.1815 0.758744,0.2457 0.125395,0.15431 0.144541,0.15703 -2.157122,-0.30649 z m -5.106425,-2.19553 c 0.106352,-0.69692 -0.08026,-2.08553 -0.392717,-2.92231 -0.240726,-0.64468 -1.089045,-1.54266 -1.812912,-1.91903 -0.897032,-0.46642 -2.419296,-0.6996 -4.567191,-0.6996 h -1.822715 v 1.65695 1.65696 l 0.670545,0.2465 c 0.368801,0.13556 1.380536,0.52392 2.248301,0.86299 1.344521,0.52537 5.149183,1.78386 5.467205,1.80843 0.05657,0.005 0.15083,-0.30654 0.209484,-0.69089 z m -6.228904,-1.46109 c 0,-0.066 0.07519,-0.12 0.167088,-0.12 0.0919,0 0.123207,0.054 0.06958,0.12 -0.05363,0.066 -0.12882,0.11999 -0.167087,0.11999 -0.03827,0 -0.06958,-0.054 -0.06958,-0.11999 z m 2.845406,5.28063 c 0.737508,-0.15582 2.126215,-0.83141 1.948738,-0.94803 -0.07687,-0.0505 -0.778758,-0.27389 -1.559747,-0.49639 -0.780988,-0.22251 -2.37333,-0.7171 -3.538538,-1.0991 -1.165208,-0.382 -2.123694,-0.68164 -2.129969,-0.66587 -0.0063,0.0158 0.01018,0.77115 0.03658,1.67862 l 0.04798,1.64994 2.318651,-7.2e-4 c 1.275257,-3.6e-4 2.569596,-0.0537 2.87631,-0.1185 z m -4.107609,-3.24071 c -0.130165,-0.064 -0.307662,-0.11632 -0.394439,-0.11632 -0.08678,0 -0.05127,0.0523 0.07889,0.11632 0.130165,0.064 0.307663,0.11632 0.394439,0.11632 0.08678,0 0.05127,-0.0523 -0.07889,-0.11632 z m 33.132848,-2.32522 c 0,-0.0249 -0.124248,-0.11941 -0.276112,-0.20999 -0.250236,-0.14926 -0.255816,-0.14502 -0.05958,0.0453 0.20611,0.19988 0.335681,0.26345 0.335681,0.16469 z M 6.6486924,21.184239 c 0,-0.0249 -0.124248,-0.11942 -0.276107,-0.21 -0.250242,-0.14926 -0.255822,-0.14501 -0.05957,0.0453 0.206113,0.19988 0.335677,0.26345 0.335676,0.16469 z m -1.104429,-0.59608 c 0,-0.0228 -0.159747,-0.14426 -0.354994,-0.26999 l -0.354995,-0.22858 0.300561,0.26998 c 0.282452,0.25372 0.409428,0.32462 0.409428,0.22859 z m 0.920357,-0.0702 c -0.0624,-0.13242 -3.74916,-2.5283 -3.890521,-2.5283 -0.174425,0 1.921851,1.56541 2.812389,2.10017 0.860138,0.51651 1.179552,0.64335 1.078132,0.42813 z m -1.709233,-0.40402 c 0,-0.0196 -0.301746,-0.2491 -0.670547,-0.50999 l -0.670545,-0.47433 0.623679,0.50998 c 0.580013,0.47428 0.717413,0.56512 0.717413,0.47434 z m -1.41998,-1.08963 c 0,-0.0249 -0.124247,-0.1194 -0.276106,-0.20998 -0.250242,-0.14926 -0.255822,-0.14502 -0.05957,0.0453 0.206112,0.19988 0.335676,0.26344 0.335676,0.16468 z m -0.705093,-1.38861 c -0.05808,-0.0715 -0.179261,-0.0953 -0.269306,-0.0529 -0.106005,0.0499 -0.08986,0.11167 0.04577,0.17543 0.253191,0.119 0.368441,0.0559 0.22353,-0.12245 z m -0.589245,-0.60055 c -0.10592,-0.12898 -0.223139,-0.21129 -0.260483,-0.18289 -0.06763,0.0514 0.276223,0.41743 0.392161,0.41743 0.0335,0 -0.02575,-0.10554 -0.131678,-0.23454 z"
       id="path179" /><path
       style="fill:#808080;stroke-width:0.311003"
       d="m 35.025457,28.177266 c -9.093844,-1.22353 -16.662975,-3.21865 -24.302029,-6.4057 -3.2431346,-1.35305 -3.4198156,-1.47018 -2.6878356,-1.78186 0.696276,-0.29649 0.794471,-0.56511 0.882197,-2.41334 l 0.09871,-2.079718 h 4.7959976 c 5.841441,0 7.693487,0.390328 9.819543,2.069508 l 1.477976,1.16733 1.389614,-1.07572 c 3.423712,-2.650318 7.892583,-3.306158 11.935346,-1.7516 1.132039,0.4353 2.555427,1.23098 3.163081,1.76817 l 1.10482,0.97671 -1.601858,0.60714 -1.601859,0.60714 -0.729531,-0.58725 c -1.93475,-1.5574 -5.431452,-1.92256 -7.954009,-0.83063 -2.821336,1.22125 -3.938418,3.74256 -2.711303,6.11954 l 0.689826,1.33623 -1.004602,-0.18907 c -0.552532,-0.10398 -1.947516,-0.41658 -3.099962,-0.69467 l -2.095359,-0.50561 -0.229857,-1.96756 c -0.398872,-3.4143 -1.738409,-4.38637 -6.406608,-4.64911 l -3.274924,-0.18433 v 2.07064 2.07064 l 2.267861,0.879 c 2.751218,1.06634 8.084277,2.57159 11.507289,3.24791 1.385915,0.27383 3.476319,0.6911 4.645342,0.92726 2.509058,0.50689 7.036697,0.7315 7.302999,0.36229 0.102613,-0.14226 0.0061,-0.25866 -0.214549,-0.25866 -0.220613,0 -0.0028,-0.26849 0.484141,-0.59666 1.724291,-1.16216 1.033453,-1.7064 -2.166034,-1.7064 h -1.988395 v -1.15153 -1.15153 h 4.703708 4.703711 v 1.09501 c 0,0.60225 -0.378422,1.74568 -0.840935,2.54096 -0.760583,1.3078 -0.933338,1.43433 -1.808097,1.32432 -0.552963,-0.0695 -1.078105,0.0322 -1.226209,0.23751 -0.203318,0.28188 0.506601,0.32566 3.300034,0.2035 4.154212,-0.18167 5.82578,-0.72428 6.664841,-2.1635 0.457686,-0.78505 0.611021,-0.86933 0.94822,-0.5212 0.221232,0.22841 0.353521,0.77938 0.293972,1.22438 -0.08658,0.64697 -0.444871,0.95201 -1.78817,1.52237 -1.491901,0.63347 -2.168677,0.72097 -6.047626,0.78192 -2.987375,0.0469 -5.641903,-0.10282 -8.399482,-0.47383 z"
       id="path256" /><path
       style="fill:#c8ab37;stroke-width:0.311003"
       d="m 8.9870654,26.468336 v -4.05625 l 1.8478846,0.77655 1.847886,0.77655 v 2.12612 2.12613 l 3.275799,-0.099 c 2.757871,-0.0833 3.44548,-0.20265 4.349012,-0.75487 0.978499,-0.59803 1.208302,-0.62677 2.603839,-0.32567 0.841843,0.18163 1.530624,0.42017 1.530624,0.53008 0,0.34527 -1.797365,1.65856 -3.023813,2.20943 -0.96887,0.43517 -2.166842,0.54745 -6.80358,0.63765 l -5.6276516,0.10949 z"
       id="path534" /><path
       style="fill:#c8ab37;stroke-width:0.311003"
       d="m 30.630792,29.919056 c -1.800417,-0.55558 -3.623103,-1.4589 -3.374153,-1.67221 0.08122,-0.0696 1.994767,0.14228 4.252335,0.47082 2.257565,0.32854 4.605964,0.59734 5.218659,0.59734 1.678887,0 1.674811,0.46746 -0.0072,0.83037 -2.115589,0.45646 -4.11822,0.38203 -6.0896,-0.22632 z"
       id="path536" /><path
       style="fill:#aa8800;stroke-width:0.311003"
       d="m 34.857467,28.136846 c 0,-0.10773 -0.718154,-0.28254 -1.595901,-0.38846 -3.712641,-0.44803 -14.46502,-2.9042 -14.0964,-3.22005 0.09239,-0.0792 1.430898,0.18544 2.974452,0.58802 7.030023,1.83352 16.413622,3.09098 16.413622,2.19952 0,-0.19638 0.303155,-0.68728 0.673678,-1.0909 1.026488,-1.11815 0.397934,-1.51609 -2.394714,-1.51609 H 34.52149 v -1.15153 -1.15153 h 4.733239 4.733242 l -0.237782,1.2235 c -0.287713,1.4804 -1.293232,3.2543 -2.050504,3.61742 -0.304728,0.14612 -0.834958,0.20274 -1.178291,0.12581 -0.34333,-0.0769 -0.624236,-0.0119 -0.624236,0.14449 0,0.38567 4.778278,0.41728 6.954581,0.046 1.327443,-0.22645 1.990542,-0.53578 2.761565,-1.28821 0.558062,-0.54461 1.094875,-0.9902 1.192914,-0.9902 0.09804,0 0.178255,0.36478 0.178255,0.81063 0,0.65185 -0.279703,0.9479 -1.427912,1.51139 -1.377532,0.67602 -1.662027,0.70119 -8.063501,0.71339 -3.649575,0.007 -6.635593,-0.0755 -6.635593,-0.18322 z"
       id="path540" /><path
       style="fill:#aa8800;fill-opacity:1;stroke-width:0.311003"
       d="m 8.9870654,26.578146 c 0,-2.13644 0.08062,-3.88444 0.179158,-3.88444 0.09854,0 0.9300856,0.32605 1.8478856,0.72456 l 1.668727,0.72456 v 2.13557 2.13558 l 3.107809,-0.15539 c 2.075198,-0.10376 3.529871,-0.33668 4.378075,-0.70102 1.469201,-0.63107 1.867226,-0.66035 3.159585,-0.23248 l 0.945815,0.31314 -1.319466,0.98498 c -1.712723,1.27853 -2.693159,1.46351 -8.843904,1.66856 l -5.1236846,0.17081 z"
       id="path6179" /><path
       style="fill:#aa8800;fill-opacity:1;stroke-width:0.311003"
       d="m 30.825716,29.787366 c -1.478541,-0.46021 -3.302075,-1.30807 -2.855823,-1.32783 0.432729,-0.0192 7.799655,0.85465 8.903449,1.05606 0.786487,0.14351 0.79718,0.1682 0.167991,0.38793 -1.040919,0.36351 -4.906653,0.29127 -6.215617,-0.11616 z"
       id="path6181" /></g></svg>
