<?xml version="1.0" encoding="UTF-8"?>
<!DOCTYPE svg PUBLIC "-//W3C//DTD SVG 1.1//EN" "http://www.w3.org/Graphics/SVG/1.1/DTD/svg11.dtd">
<svg xmlns="http://www.w3.org/2000/svg" version="1.1" width="2000px" height="782px" style="shape-rendering:geometricPrecision; text-rendering:geometricPrecision; image-rendering:optimizeQuality; fill-rule:evenodd; clip-rule:evenodd" xmlns:xlink="http://www.w3.org/1999/xlink">
<g><path style="opacity:0.981" fill="#0080ff" d="M 796.5,-0.5 C 806.5,-0.5 816.5,-0.5 826.5,-0.5C 835.269,1.42768 841.102,6.76102 844,15.5C 844.667,265.5 844.667,515.5 844,765.5C 841.102,774.239 835.269,779.572 826.5,781.5C 816.5,781.5 806.5,781.5 796.5,781.5C 787.291,779.46 781.458,773.793 779,764.5C 778.333,515.167 778.333,265.833 779,16.5C 781.449,7.21575 787.282,1.54908 796.5,-0.5 Z"/></g>
<g><path style="opacity:0.991" fill="#007fff" d="M 1103.5,30.5 C 1208.5,30.5 1313.5,30.5 1418.5,30.5C 1418.5,89.8333 1418.5,149.167 1418.5,208.5C 1392.83,208.5 1367.17,208.5 1341.5,208.5C 1341.5,171.167 1341.5,133.833 1341.5,96.5C 1258.5,96.5 1175.5,96.5 1092.5,96.5C 1092.5,292.5 1092.5,488.5 1092.5,684.5C 1175.5,684.5 1258.5,684.5 1341.5,684.5C 1341.67,610.166 1341.5,535.833 1341,461.5C 1296.75,489.042 1252.58,516.708 1208.5,544.5C 1207.33,520.84 1207.17,497.174 1208,473.5C 1277.75,429.708 1347.58,386.042 1417.5,342.5C 1418.5,478.498 1418.83,614.498 1418.5,750.5C 1313.48,750.971 1208.48,750.471 1103.5,749C 1085.58,747.603 1068.58,742.936 1052.5,735C 1040.56,727.959 1031.73,718.126 1026,705.5C 1018.85,688.222 1014.85,670.222 1014,651.5C 1013.01,472.48 1013.34,293.48 1015,114.5C 1022.33,62.9975 1051.83,34.9975 1103.5,30.5 Z"/></g>
<g><path style="opacity:0.992" fill="#007fff" d="M 1532.5,30.5 C 1650.83,30.3333 1769.17,30.5 1887.5,31C 1910.4,31.4751 1932.07,36.8084 1952.5,47C 1972.32,60.121 1985.16,78.2877 1991,101.5C 1993.42,109.683 1995.09,118.016 1996,126.5C 1997.15,214.315 1997.65,302.148 1997.5,390C 1997.65,477.852 1997.15,565.685 1996,653.5C 1993.82,681.684 1982.65,705.517 1962.5,725C 1939.87,741.1 1914.53,749.433 1886.5,750C 1768.5,750.5 1650.5,750.667 1532.5,750.5C 1532.5,728.5 1532.5,706.5 1532.5,684.5C 1552.83,684.5 1573.17,684.5 1593.5,684.5C 1593.5,488.5 1593.5,292.5 1593.5,96.5C 1573.17,96.5 1552.83,96.5 1532.5,96.5C 1532.5,74.5 1532.5,52.5 1532.5,30.5 Z M 1672.5,96.5 C 1754.5,96.5 1836.5,96.5 1918.5,96.5C 1918.5,292.5 1918.5,488.5 1918.5,684.5C 1836.5,684.5 1754.5,684.5 1672.5,684.5C 1672.5,488.5 1672.5,292.5 1672.5,96.5 Z"/></g>
<g><path style="opacity:0.964" fill="#000b80" d="M 7.5,86.5 C 92.2486,86.0055 176.915,86.5055 261.5,88C 263.049,89.214 264.215,90.714 265,92.5C 265.991,143.25 265.657,193.916 264,244.5C 262.238,247.268 259.738,248.768 256.5,249C 173.11,249.992 89.7766,249.658 6.5,248C 4.62173,246.457 3.12173,244.624 2,242.5C 1.33333,192.5 1.33333,142.5 2,92.5C 3.35968,89.9774 5.19301,87.9774 7.5,86.5 Z M 22.5,107.5 C 96.5,107.5 170.5,107.5 244.5,107.5C 244.5,147.5 244.5,187.5 244.5,227.5C 170.5,227.5 96.5,227.5 22.5,227.5C 22.5,187.5 22.5,147.5 22.5,107.5 Z"/></g>
<g><path style="opacity:0.973" fill="#010b7f" d="M 493.5,86.5 C 510.17,86.3334 526.837,86.5001 543.5,87C 548.37,90.9195 550.536,96.0862 550,102.5C 554.878,95.4255 561.044,93.9255 568.5,98C 578.667,108.167 588.833,118.333 599,128.5C 601.91,135.466 600.41,141.299 594.5,146C 600.496,145.855 605.329,148.022 609,152.5C 610.103,160.775 610.603,169.108 610.5,177.5C 610.603,185.892 610.103,194.225 609,202.5C 607.833,205 606,206.833 603.5,208C 600.167,208.333 596.833,208.667 593.5,209C 600.345,213.316 602.178,219.149 599,226.5C 588.833,238 578,248.833 566.5,259C 559.857,261.121 554.357,259.288 550,253.5C 549.74,257.25 549.073,260.916 548,264.5C 546.363,266.81 544.196,268.31 541.5,269C 525.833,269.667 510.167,269.667 494.5,269C 488.414,265.659 485.914,260.493 487,253.5C 482.01,259.589 475.843,261.089 468.5,258C 458.333,247.833 448.167,237.667 438,227.5C 434.996,220.357 436.496,214.357 442.5,209.5C 435.036,210.192 429.869,207.192 427,200.5C 426.333,185.167 426.333,169.833 427,154.5C 427.792,152.413 428.959,150.579 430.5,149C 434.332,147.375 438.332,146.375 442.5,146C 436.463,141.362 434.963,135.529 438,128.5C 448.5,118 459,107.5 469.5,97C 476.671,94.3251 482.504,96.1584 487,102.5C 486.198,95.7933 488.364,90.46 493.5,86.5 Z M 508.5,107.5 C 515.167,107.5 521.833,107.5 528.5,107.5C 527.9,111.516 528.9,115.016 531.5,118C 539.357,122.452 547.69,124.785 556.5,125C 558.286,124.215 559.786,123.049 561,121.5C 565.5,126 570,130.5 574.5,135C 571.534,137.265 570.201,140.265 570.5,144C 571.882,149.609 573.715,155.109 576,160.5C 578.25,166.048 582.417,168.714 588.5,168.5C 588.5,174.833 588.5,181.167 588.5,187.5C 583.653,186.84 579.819,188.507 577,192.5C 574.249,198.661 572.083,204.994 570.5,211.5C 570.596,215.192 571.929,218.358 574.5,221C 570.318,225.349 565.985,229.515 561.5,233.5C 558.737,231.202 555.57,229.868 552,229.5C 545.454,231.794 538.954,234.294 532.5,237C 528.886,239.944 527.553,243.777 528.5,248.5C 521.833,248.5 515.167,248.5 508.5,248.5C 509.564,242.796 507.564,238.629 502.5,236C 496.588,233.542 490.588,231.375 484.5,229.5C 480.941,230.467 477.608,231.633 474.5,233C 470.318,228.985 466.318,224.818 462.5,220.5C 465.194,218.111 466.527,215.111 466.5,211.5C 464.307,204.76 461.807,198.094 459,191.5C 455.96,188.034 452.126,186.7 447.5,187.5C 447.5,181.167 447.5,174.833 447.5,168.5C 452.907,168.875 457.073,166.875 460,162.5C 462.604,156.464 464.771,150.298 466.5,144C 465.678,140.234 464.511,136.734 463,133.5C 467,129.5 471,125.5 475,121.5C 479.091,125.305 483.924,126.472 489.5,125C 494.751,122.472 500.084,120.139 505.5,118C 507.931,114.922 508.931,111.422 508.5,107.5 Z M 512.5,158.5 C 526.923,157.039 535.59,163.372 538.5,177.5C 534.936,194.447 524.936,200.28 508.5,195C 496.031,184.717 495.364,173.717 506.5,162C 508.727,161.059 510.727,159.892 512.5,158.5 Z"/></g>
<g><path style="opacity:0.972" fill="#000c80" d="M 143.5,122.5 C 150.528,124.847 157.195,128.014 163.5,132C 149.794,159.245 135.961,186.411 122,213.5C 115.754,210.294 109.587,206.96 103.5,203.5C 117.116,176.601 130.45,149.601 143.5,122.5 Z"/></g>
<g><path style="opacity:0.959" fill="#020b7e" d="M 74.5,129.5 C 80.4218,133.751 85.7551,138.751 90.5,144.5C 83.1667,152.167 75.8333,159.833 68.5,167.5C 75.8333,175.167 83.1667,182.833 90.5,190.5C 85.8333,195.833 80.8333,200.833 75.5,205.5C 64.8474,195.348 54.3474,185.014 44,174.5C 40.7877,169.867 40.7877,165.2 44,160.5C 54.3688,150.298 64.5355,139.965 74.5,129.5 Z"/></g>
<g><path style="opacity:0.961" fill="#000b80" d="M 190.5,129.5 C 201.413,138.909 211.913,148.909 222,159.5C 225.831,164.303 226.164,169.303 223,174.5C 212.653,185.014 202.153,195.348 191.5,205.5C 186.167,200.833 181.167,195.833 176.5,190.5C 183.833,182.833 191.167,175.167 198.5,167.5C 191.167,159.833 183.833,152.167 176.5,144.5C 181.188,139.48 185.855,134.48 190.5,129.5 Z"/></g>
<g><path style="opacity:0.966" fill="#010b7f" d="M 513.5,136.5 C 538.584,136.093 553.75,148.093 559,172.5C 558.686,204.479 542.519,219.646 510.5,218C 486.693,211.172 475.859,195.339 478,170.5C 482.852,151.814 494.685,140.48 513.5,136.5 Z M 512.5,158.5 C 510.727,159.892 508.727,161.059 506.5,162C 495.364,173.717 496.031,184.717 508.5,195C 524.936,200.28 534.936,194.447 538.5,177.5C 535.59,163.372 526.923,157.039 512.5,158.5 Z"/></g>
<g><path style="opacity:0.919" fill="#000b7f" d="M 295.5,217.5 C 302.5,217.5 309.5,217.5 316.5,217.5C 316.5,228.167 316.5,238.833 316.5,249.5C 309.5,249.5 302.5,249.5 295.5,249.5C 295.5,238.833 295.5,228.167 295.5,217.5 Z"/></g>
<g><path style="opacity:0.947" fill="#000b80" d="M 220.5,261.5 C 231.76,271.091 242.427,281.425 252.5,292.5C 248.349,297.152 244.015,301.652 239.5,306C 238.5,306.667 237.5,306.667 236.5,306C 226.5,296 216.5,286 206.5,276C 211.37,271.298 216.037,266.465 220.5,261.5 Z"/></g>
<g><path style="opacity:0.963" fill="#040c7b" d="M 388.5,261.5 C 394.422,265.751 399.755,270.751 404.5,276.5C 395.014,286.486 385.348,296.319 375.5,306C 374.5,306.667 373.5,306.667 372.5,306C 367.833,301.333 363.167,296.667 358.5,292C 368.702,281.965 378.702,271.798 388.5,261.5 Z"/></g>
<g><path style="opacity:0.927" fill="#000b80" d="M 51.5,268.5 C 58.8333,268.5 66.1667,268.5 73.5,268.5C 73.5,275.5 73.5,282.5 73.5,289.5C 66.1667,289.5 58.8333,289.5 51.5,289.5C 51.5,282.5 51.5,275.5 51.5,268.5 Z"/></g>
<g><path style="opacity:0.931" fill="#000b7f" d="M 538.5,278.5 C 545.5,278.5 552.5,278.5 559.5,278.5C 559.5,285.5 559.5,292.5 559.5,299.5C 552.5,299.5 545.5,299.5 538.5,299.5C 538.5,292.5 538.5,285.5 538.5,278.5 Z"/></g>
<g><path style="opacity:0.968" fill="#010b7f" d="M 299.5,288.5 C 330.686,287.886 352.186,301.886 364,330.5C 370.124,351.541 366.624,370.707 353.5,388C 367.167,396.5 380.833,405 394.5,413.5C 399.189,425.417 403.189,437.583 406.5,450C 414.167,450.333 421.833,450.667 429.5,451C 433.112,451.889 435.612,454.055 437,457.5C 434.76,504.861 431.76,552.194 428,599.5C 428.87,605.564 426.704,610.064 421.5,613C 344.167,613.667 266.833,613.667 189.5,613C 186.619,611.749 184.786,609.583 184,606.5C 179.954,556.859 176.621,507.193 174,457.5C 175.587,454.244 178.087,452.077 181.5,451C 189.493,450.5 197.493,450.334 205.5,450.5C 208.377,438.327 211.877,426.327 216,414.5C 229.434,405.24 243.267,396.573 257.5,388.5C 241.597,365.246 240.43,341.246 254,316.5C 265.249,300.742 280.416,291.408 299.5,288.5 Z M 304.5,309.5 C 324.03,310.534 337.197,320.2 344,338.5C 348.616,360.767 340.783,376.934 320.5,387C 296.317,393.836 278.817,386.003 268,363.5C 262.387,343.775 267.887,327.942 284.5,316C 290.875,312.485 297.542,310.318 304.5,309.5 Z M 273.5,403.5 C 278.503,405.224 283.503,407.058 288.5,409C 298.435,411.692 308.435,412.025 318.5,410C 325.015,408.159 331.349,406.159 337.5,404C 351,411.916 364.334,420.082 377.5,428.5C 380.117,435.681 382.117,443.014 383.5,450.5C 331.496,450.833 279.496,450.5 227.5,449.5C 229.528,442.051 231.861,434.718 234.5,427.5C 247.731,419.725 260.731,411.725 273.5,403.5 Z M 195.5,472.5 C 268.833,472.5 342.167,472.5 415.5,472.5C 412.739,512.494 410.072,552.494 407.5,592.5C 339.83,592.833 272.163,592.5 204.5,591.5C 201.265,551.872 198.265,512.205 195.5,472.5 Z"/></g>
<g><path style="opacity:0.961" fill="#010b80" d="M 52.5,308.5 C 59.5,308.5 66.5,308.5 73.5,308.5C 73.5,315.833 73.5,323.167 73.5,330.5C 66.1667,330.5 58.8333,330.5 51.5,330.5C 51.2027,323.08 51.536,315.746 52.5,308.5 Z"/></g>
<g><path style="opacity:0.934" fill="#000b7f" d="M 538.5,319.5 C 545.5,319.5 552.5,319.5 559.5,319.5C 559.5,326.5 559.5,333.5 559.5,340.5C 552.5,340.5 545.5,340.5 538.5,340.5C 538.5,333.5 538.5,326.5 538.5,319.5 Z"/></g>
<g><path style="opacity:0.931" fill="#000b80" d="M 51.5,349.5 C 58.8333,349.5 66.1667,349.5 73.5,349.5C 73.5,356.5 73.5,363.5 73.5,370.5C 66.1667,370.5 58.8333,370.5 51.5,370.5C 51.5,363.5 51.5,356.5 51.5,349.5 Z"/></g>
<g><path style="opacity:0.933" fill="#000b7f" d="M 538.5,359.5 C 545.5,359.5 552.5,359.5 559.5,359.5C 559.5,366.5 559.5,373.5 559.5,380.5C 552.5,380.5 545.5,380.5 538.5,380.5C 538.5,373.5 538.5,366.5 538.5,359.5 Z"/></g>
<g><path style="opacity:0.931" fill="#000b80" d="M 51.5,400.5 C 58.8333,400.5 66.1667,400.5 73.5,400.5C 73.5,407.5 73.5,414.5 73.5,421.5C 66.1667,421.5 58.8333,421.5 51.5,421.5C 51.5,414.5 51.5,407.5 51.5,400.5 Z"/></g>
<g><path style="opacity:0.933" fill="#000b7f" d="M 538.5,400.5 C 545.5,400.5 552.5,400.5 559.5,400.5C 559.5,407.5 559.5,414.5 559.5,421.5C 552.5,421.5 545.5,421.5 538.5,421.5C 538.5,414.5 538.5,407.5 538.5,400.5 Z"/></g>
<g><path style="opacity:0.929" fill="#000b80" d="M 51.5,440.5 C 58.8333,440.5 66.1667,440.5 73.5,440.5C 73.5,447.5 73.5,454.5 73.5,461.5C 66.1667,461.5 58.8333,461.5 51.5,461.5C 51.5,454.5 51.5,447.5 51.5,440.5 Z"/></g>
<g><path style="opacity:0.934" fill="#000b7f" d="M 538.5,440.5 C 545.5,440.5 552.5,440.5 559.5,440.5C 559.5,447.5 559.5,454.5 559.5,461.5C 552.5,461.5 545.5,461.5 538.5,461.5C 538.5,454.5 538.5,447.5 538.5,440.5 Z"/></g>
<g><path style="opacity:0.931" fill="#000b80" d="M 51.5,481.5 C 58.8333,481.5 66.1667,481.5 73.5,481.5C 73.5,488.5 73.5,495.5 73.5,502.5C 66.1667,502.5 58.8333,502.5 51.5,502.5C 51.5,495.5 51.5,488.5 51.5,481.5 Z"/></g>
<g><path style="opacity:0.931" fill="#000b7f" d="M 538.5,481.5 C 545.5,481.5 552.5,481.5 559.5,481.5C 559.5,488.5 559.5,495.5 559.5,502.5C 552.5,502.5 545.5,502.5 538.5,502.5C 538.5,495.5 538.5,488.5 538.5,481.5 Z"/></g>
<g><path style="opacity:0.929" fill="#000b80" d="M 51.5,521.5 C 58.8333,521.5 66.1667,521.5 73.5,521.5C 73.5,528.5 73.5,535.5 73.5,542.5C 66.1667,542.5 58.8333,542.5 51.5,542.5C 51.5,535.5 51.5,528.5 51.5,521.5 Z"/></g>
<g><path style="opacity:0.933" fill="#000b80" d="M 92.5,521.5 C 99.5,521.5 106.5,521.5 113.5,521.5C 113.5,528.5 113.5,535.5 113.5,542.5C 106.5,542.5 99.5,542.5 92.5,542.5C 92.5,535.5 92.5,528.5 92.5,521.5 Z"/></g>
<g><path style="opacity:0.963" fill="#000c80" d="M 132.5,521.5 C 139.833,521.5 147.167,521.5 154.5,521.5C 154.5,528.5 154.5,535.5 154.5,542.5C 147.167,542.5 139.833,542.5 132.5,542.5C 132.5,535.5 132.5,528.5 132.5,521.5 Z"/></g>
<g><path style="opacity:0.953" fill="#000b80" d="M 284.5,521.5 C 298.5,521.5 312.5,521.5 326.5,521.5C 326.5,528.5 326.5,535.5 326.5,542.5C 312.5,542.5 298.5,542.5 284.5,542.5C 284.5,535.5 284.5,528.5 284.5,521.5 Z"/></g>
<g><path style="opacity:0.931" fill="#000b7f" d="M 457.5,521.5 C 464.5,521.5 471.5,521.5 478.5,521.5C 478.5,528.5 478.5,535.5 478.5,542.5C 471.5,542.5 464.5,542.5 457.5,542.5C 457.5,535.5 457.5,528.5 457.5,521.5 Z"/></g>
<g><path style="opacity:0.931" fill="#000b80" d="M 497.5,521.5 C 504.5,521.5 511.5,521.5 518.5,521.5C 518.5,528.5 518.5,535.5 518.5,542.5C 511.5,542.5 504.5,542.5 497.5,542.5C 497.5,535.5 497.5,528.5 497.5,521.5 Z"/></g>
<g><path style="opacity:0.931" fill="#000b80" d="M 538.5,521.5 C 545.5,521.5 552.5,521.5 559.5,521.5C 559.5,528.5 559.5,535.5 559.5,542.5C 552.5,542.5 545.5,542.5 538.5,542.5C 538.5,535.5 538.5,528.5 538.5,521.5 Z"/></g>
<g><path style="opacity:0.966" fill="#000b7f" d="M 7.5,633.5 C 206.167,633.333 404.834,633.5 603.5,634C 607.67,635.83 609.836,638.997 610,643.5C 610.918,658.879 610.584,674.213 609,689.5C 607.457,691.378 605.624,692.878 603.5,694C 404.833,694.667 206.167,694.667 7.5,694C 5,692.833 3.16667,691 2,688.5C 1.33333,672.167 1.33333,655.833 2,639.5C 3.35968,636.977 5.19301,634.977 7.5,633.5 Z M 22.5,654.5 C 211.167,654.5 399.833,654.5 588.5,654.5C 588.5,660.833 588.5,667.167 588.5,673.5C 399.833,673.5 211.167,673.5 22.5,673.5C 22.5,667.167 22.5,660.833 22.5,654.5 Z"/></g>
</svg>
